<?xml version="1.0" encoding="UTF-8"?><svg id="Layer_1" xmlns="http://www.w3.org/2000/svg" width="395" height="95" viewBox="0 0 395 95"><defs><style>.cls-1{fill:#003a40;}.cls-2{fill:#047fa3;}.cls-3{fill:#01687f;}.cls-4{fill:#0093bd;}.cls-5{fill:#9cdae7;}</style></defs><polygon class="cls-5" points="55.55 18.34 78.87 32.08 102.19 18.34 78.87 4.6 55.55 18.34"/><polygon class="cls-1" points="55.55 77.14 78.04 90.39 78.04 63.89 55.55 77.14"/><polygon class="cls-3" points="29.8 62.92 29.8 90.39 77.24 62.44 53.92 48.71 29.8 62.92"/><polygon class="cls-2" points="4.86 76.67 28.15 90.39 28.15 33.52 4.86 19.79 4.86 76.67"/><polygon class="cls-4" points="5.66 18.34 78.04 60.99 78.04 33.52 28.98 4.61 5.66 18.34"/><path class="cls-1" d="m301.36,18.92h10.05v57.18h-10.05V18.92Z"/><path class="cls-1" d="m216.7,54.45c2.01-.54,3.85-1.32,5.51-2.33,1.66-1.01,3.09-2.23,4.29-3.68,1.2-1.44,2.14-3.1,2.82-4.98.68-1.88,1.02-4.02,1.02-6.41,0-2.78-.49-5.3-1.47-7.56-.98-2.26-2.38-4.17-4.21-5.72-1.82-1.55-4.06-2.75-6.7-3.59-2.64-.84-5.6-1.27-8.86-1.27h-25.49v57.18h10.05V28.07h14.62c3.76,0,6.67.8,8.74,2.41,2.07,1.61,3.1,3.99,3.1,7.15,0,2.94-1.06,5.28-3.19,7.03-2.12,1.74-4.98,2.61-8.58,2.61h-6.73l-4.26,8.9h8.87l14.05,19.93h11.85l-15.44-21.65Z"/><polygon class="cls-4" points="340.87 52.82 365.33 52.82 365.33 43.67 345.25 43.67 340.87 52.82"/><polygon class="cls-4" points="326.44 18.92 326.44 76.1 336.49 76.1 336.49 28.07 369 28.07 369 18.92 326.44 18.92"/><polygon class="cls-1" points="149.06 18.92 139.81 18.92 114.83 76.1 125.05 76.1 144.27 30.84 154.09 53.55 142.51 53.55 138.81 62.4 157.74 62.4 163.49 76.1 174.04 76.1 149.06 18.92"/><rect class="cls-4" x="380.09" y="18.92" width="10.05" height="9.14"/><rect class="cls-4" x="380.09" y="35.78" width="10.05" height="40.32"/><polygon class="cls-1" points="252.17 59.48 291.71 18.92 279.37 18.92 252.17 47.67 252.17 18.92 242.12 18.92 242.12 76.1 252.17 76.1 252.17 59.52 252.21 59.48 252.17 59.48"/><polygon class="cls-1" points="271.69 48.44 264.91 55.42 280.6 76.1 292.77 76.1 271.69 48.44"/></svg>