<svg xmlns="http://www.w3.org/2000/svg" width="198" height="40" viewBox="0 0 198 40" fill="none"><path fill-rule="evenodd" clip-rule="evenodd" d="M0 19.9773C0 8.94697 8.93939 0 19.9545 0C27.6894 0 34.3939 4.41667 37.7273 10.9091C37.8864 11.2955 37.8939 11.6515 37.803 11.9924C36.5606 14.8182 35.0303 17.4924 33.2576 19.9773C35.0303 22.4621 36.5606 25.1364 37.803 27.9621C37.9091 28.3409 37.8939 28.6742 37.7727 28.9697C34.4848 35.4849 27.7348 39.9546 19.947 39.9546C8.93939 39.947 0 31 0 19.9773ZM34.9697 28.3636C33.9848 26.2273 32.8182 24.197 31.5076 22.2727C30 24.1212 28.3561 25.8485 26.5833 27.4394L26.5455 27.4697C24.7879 29.0152 22.4773 29.9546 19.9545 29.9546C14.447 29.9546 9.97729 25.4849 9.97729 19.9697C9.97729 14.4545 14.447 9.98485 19.9545 9.98485C22.4849 9.98485 24.803 10.9318 26.553 12.4849L26.5833 12.5076C28.3561 14.0985 30.0076 15.8258 31.5076 17.6742C32.8182 15.75 33.9773 13.7121 34.9697 11.5833C32.0303 6.31818 26.4015 2.75758 19.9545 2.75758C10.4621 2.75758 2.75002 10.4697 2.75002 19.9773C2.75002 29.4849 10.4546 37.197 19.9545 37.197C26.4015 37.1894 32.0303 33.6288 34.9697 28.3636ZM24.4621 25.6212C26.4242 23.9167 28.2197 22.0227 29.8258 19.9773C28.2121 17.9318 26.4167 16.0303 24.4621 14.3182L24.2121 14.1364C23.0152 13.2651 21.5455 12.75 19.9545 12.75C15.9697 12.75 12.7349 15.9924 12.7349 19.9848C12.7349 23.9773 15.9697 27.2197 19.9545 27.2197C21.6591 27.2045 23.2273 26.6136 24.4621 25.6212Z" fill="#FBC83F"></path><path fill-rule="evenodd" clip-rule="evenodd" d="M29.2122 20.7273C29.4167 20.4849 29.6137 20.2349 29.8106 19.9849L29.8182 19.9697C29.8182 19.9773 29.8106 19.9773 29.8106 19.9849L30.8485 21.3485C31.0682 21.6591 31.2879 21.9697 31.5 22.2803C31.2122 22.6288 30.9243 22.9697 30.6364 23.3106L29.2122 20.7273Z" fill="#DFA70E"></path><path d="M60.5694 30.7606C58.2037 30.7606 56.059 30.2571 54.1355 29.25C52.234 28.221 50.7306 26.809 49.6251 25.0138C48.5417 23.1967 48 21.1497 48 18.8729C48 16.596 48.5417 14.56 49.6251 12.7648C50.7306 10.9477 52.234 9.53566 54.1355 8.5286C56.059 7.49965 58.2147 6.98517 60.6026 6.98517C62.6145 6.98517 64.4275 7.33545 66.0416 8.03602C67.6777 8.73658 69.0485 9.74364 70.154 11.0572L66.7049 14.2097C65.1351 12.4145 63.1894 11.517 60.8679 11.517C59.4307 11.517 58.1484 11.8344 57.0208 12.4693C55.8932 13.0823 55.0088 13.947 54.3676 15.0636C53.7485 16.1801 53.439 17.4499 53.439 18.8729C53.439 20.2959 53.7485 21.5657 54.3676 22.6822C55.0088 23.7987 55.8932 24.6744 57.0208 25.3093C58.1484 25.9223 59.4307 26.2288 60.8679 26.2288C63.1894 26.2288 65.1351 25.3203 66.7049 23.5032L70.154 26.6557C69.0485 27.9912 67.6777 29.0092 66.0416 29.7097C64.4054 30.4103 62.5814 30.7606 60.5694 30.7606Z" fill="#262626"></path><path d="M78.3588 15.0307C78.9779 14.1769 79.807 13.5311 80.8462 13.0932C81.9075 12.6554 83.1235 12.4364 84.4943 12.4364V17.1653C83.9195 17.1215 83.5325 17.0996 83.3335 17.0996C81.8522 17.0996 80.6914 17.5155 79.8513 18.3475C79.0111 19.1575 78.591 20.3835 78.591 22.0254V30.3665H73.4173V12.6992H78.3588V15.0307Z" fill="#262626"></path><path d="M95.8988 30.6292C94.0195 30.6292 92.3281 30.2461 90.8246 29.4799C89.3433 28.6917 88.1825 27.6081 87.3423 26.2288C86.5021 24.8496 86.0821 23.2843 86.0821 21.5328C86.0821 19.7814 86.5021 18.2161 87.3423 16.8369C88.1825 15.4576 89.3433 14.3849 90.8246 13.6186C92.3281 12.8305 94.0195 12.4364 95.8988 12.4364C97.7781 12.4364 99.4585 12.8305 100.94 13.6186C102.421 14.3849 103.582 15.4576 104.422 16.8369C105.262 18.2161 105.682 19.7814 105.682 21.5328C105.682 23.2843 105.262 24.8496 104.422 26.2288C103.582 27.6081 102.421 28.6917 100.94 29.4799C99.4585 30.2461 97.7781 30.6292 95.8988 30.6292ZM95.8988 26.4258C97.2254 26.4258 98.3088 25.988 99.1489 25.1123C100.011 24.2147 100.442 23.0215 100.442 21.5328C100.442 20.0441 100.011 18.8619 99.1489 17.9862C98.3088 17.0886 97.2254 16.6398 95.8988 16.6398C94.5722 16.6398 93.4778 17.0886 92.6155 17.9862C91.7532 18.8619 91.3221 20.0441 91.3221 21.5328C91.3221 23.0215 91.7532 24.2147 92.6155 25.1123C93.4778 25.988 94.5722 26.4258 95.8988 26.4258Z" fill="#262626"></path><path d="M119.985 12.4364C122.196 12.4364 123.976 13.0932 125.325 14.4068C126.696 15.7203 127.381 17.6688 127.381 20.2521V30.3665H122.207V21.0403C122.207 19.6391 121.898 18.5992 121.279 17.9206C120.66 17.22 119.764 16.8697 118.592 16.8697C117.288 16.8697 116.249 17.2747 115.475 18.0847C114.701 18.8729 114.314 20.0551 114.314 21.6314V30.3665H109.141V12.6992H114.082V14.768C114.767 14.0237 115.619 13.4545 116.636 13.0604C117.653 12.6444 118.769 12.4364 119.985 12.4364Z" fill="#262626"></path><path d="M149.457 12.6992L141.398 31.4502C140.58 33.4862 139.563 34.9202 138.347 35.7521C137.153 36.584 135.705 37 134.002 37C133.073 37 132.156 36.8577 131.249 36.5731C130.343 36.2885 129.602 35.8944 129.027 35.3909L130.918 31.7458C131.316 32.096 131.769 32.3697 132.278 32.5667C132.808 32.7638 133.328 32.8623 133.836 32.8623C134.544 32.8623 135.119 32.6871 135.561 32.3369C136.003 32.0085 136.401 31.4502 136.755 30.6621L136.821 30.4979L129.094 12.6992H134.433L139.441 24.6854L144.482 12.6992H149.457Z" fill="#262626"></path><path d="M159.705 30.6292C157.804 30.6292 156.09 30.2461 154.564 29.4799C153.061 28.6917 151.878 27.6081 151.016 26.2288C150.176 24.8496 149.756 23.2843 149.756 21.5328C149.756 19.7814 150.176 18.2161 151.016 16.8369C151.878 15.4576 153.061 14.3849 154.564 13.6186C156.09 12.8305 157.804 12.4364 159.705 12.4364C161.584 12.4364 163.22 12.8305 164.613 13.6186C166.028 14.3849 167.056 15.4905 167.698 16.9354L163.685 19.0699C162.756 17.4499 161.418 16.6398 159.672 16.6398C158.323 16.6398 157.207 17.0777 156.322 17.9534C155.438 18.8291 154.996 20.0222 154.996 21.5328C154.996 23.0434 155.438 24.2366 156.322 25.1123C157.207 25.988 158.323 26.4258 159.672 26.4258C161.441 26.4258 162.778 25.6158 163.685 23.9958L167.698 26.1631C167.056 27.5643 166.028 28.6589 164.613 29.447C163.22 30.2352 161.584 30.6292 159.705 30.6292Z" fill="#262626"></path><path d="M170.547 6H175.721V30.3665H170.547V6Z" fill="#262626"></path><path d="M198 21.5985C198 21.6642 197.967 22.1239 197.9 22.9778H184.402C184.646 24.0724 185.221 24.9371 186.127 25.572C187.034 26.2069 188.161 26.5244 189.51 26.5244C190.438 26.5244 191.257 26.393 191.964 26.1303C192.694 25.8457 193.368 25.4078 193.987 24.8167L196.74 27.7722C195.059 29.6769 192.605 30.6292 189.377 30.6292C187.365 30.6292 185.585 30.2461 184.038 29.4799C182.49 28.6917 181.296 27.6081 180.456 26.2288C179.616 24.8496 179.196 23.2843 179.196 21.5328C179.196 19.8033 179.605 18.2489 180.423 16.8697C181.263 15.4686 182.402 14.3849 183.839 13.6186C185.298 12.8305 186.923 12.4364 188.714 12.4364C190.461 12.4364 192.041 12.8086 193.456 13.553C194.871 14.2973 195.977 15.3701 196.773 16.7712C197.591 18.1504 198 19.7595 198 21.5985ZM188.747 16.3114C187.575 16.3114 186.591 16.6398 185.795 17.2966C184.999 17.9534 184.513 18.851 184.336 19.9894H193.125C192.948 18.8729 192.462 17.9862 191.666 17.3294C190.87 16.6508 189.897 16.3114 188.747 16.3114Z" fill="#262626"></path></svg>